<?xml version="1.0" encoding="UTF-8"?>
<svg width="926px" height="749px" viewBox="0 0 926 749" version="1.1" xmlns="http://www.w3.org/2000/svg" xmlns:xlink="http://www.w3.org/1999/xlink">
    <!-- Generator: Sketch 60.1 (88133) - https://sketch.com -->
    <title>Group 2</title>
    <desc>Created with Sketch.</desc>
    <g id="Page-1" stroke="none" stroke-width="1" fill="none" fill-rule="evenodd">
        <g id="Group-2">
            <g id="undraw_to_the_moon_v1mv" fill-rule="nonzero">
                <circle id="Oval" fill="#FF6584" cx="237.90496" cy="226.93548" r="83.97916"></circle>
                <path d="M926,200.96 L926,421.84 C926,508.301285 891.656726,591.222004 830.519365,652.359365 C769.382004,713.496726 686.461285,747.84 600,747.84 L0,747.84 L0,526.96 C0,408.93 62.73,305.54 156.68,248.33 C172.869544,238.462236 189.895051,230.036484 207.56,223.15 C217.955845,219.088692 228.556992,215.573891 239.32,212.62 C239.53,212.55 239.75,212.49 239.96,212.44 C243.14,211.57 246.34,210.75 249.56,209.98 C249.74,209.93 249.91,209.89 250.09,209.85 C269.935487,205.121496 290.180896,202.265644 310.56,201.32 C312.97,201.20995 315.38,201.12 317.81,201.07 C318.68,201.04 319.56,201.02 320.45,201.02 C322.29,200.98 324.14,200.96 326,200.96 L926,200.96 Z" id="Path" fill="#3F3D56"></path>
                <path d="M432,605.5 C193.9137,605.5 0.819,669.70129 0.00952,749 L863.99052,749 C863.18091,669.70129 670.0863,605.5 432,605.5 Z" id="Path" fill="#F2F2F2"></path>
                <g id="Group" opacity="0.1" transform="translate(272.000000, 669.000000)" fill="#000000">
                    <ellipse id="Oval" cx="80" cy="23" rx="80" ry="22.22222"></ellipse>
                </g>
                <g id="Group" opacity="0.1" transform="translate(445.000000, 629.000000)" fill="#000000">
                    <ellipse id="Oval" cx="80" cy="23" rx="80" ry="22.22222"></ellipse>
                </g>
                <g id="Group" opacity="0.1" transform="translate(280.000000, 672.000000)" fill="#000000">
                    <ellipse id="Oval" cx="72" cy="20" rx="72" ry="20"></ellipse>
                </g>
                <g id="Group" opacity="0.1" transform="translate(453.000000, 632.000000)" fill="#000000">
                    <ellipse id="Oval" cx="72" cy="20" rx="72" ry="20"></ellipse>
                </g>
                <circle id="Oval" fill="#F2F2F2" cx="138" cy="290" r="7"></circle>
                <circle id="Oval" fill="#F2F2F2" cx="740" cy="564" r="7"></circle>
                <circle id="Oval" fill="#F2F2F2" cx="410" cy="339" r="7"></circle>
                <circle id="Oval" fill="#FF6584" cx="757" cy="297" r="4"></circle>
                <circle id="Oval" fill="#FF6584" cx="154" cy="497" r="4"></circle>
                <polygon id="Path" fill="#F2F2F2" points="94 581.322 92.178 581.322 92.178 579.5 91.822 579.5 91.822 581.322 90 581.322 90 581.678 91.822 581.678 91.822 583.5 92.178 583.5 92.178 581.678 94 581.678"></polygon>
                <polygon id="Path" fill="#F2F2F2" points="679 433.322 677.178 433.322 677.178 431.5 676.822 431.5 676.822 433.322 675 433.322 675 433.678 676.822 433.678 676.822 435.5 677.178 435.5 677.178 433.678 679 433.678"></polygon>
                <polygon id="Path" fill="#F2F2F2" points="830 403.322 828.178 403.322 828.178 401.5 827.822 401.5 827.822 403.322 826 403.322 826 403.678 827.822 403.678 827.822 405.5 828.178 405.5 828.178 403.678 830 403.678"></polygon>
                <polygon id="Path" fill="#F2F2F2" points="505 483.322 503.178 483.322 503.178 481.5 502.822 481.5 502.822 483.322 501 483.322 501 483.678 502.822 483.678 502.822 485.5 503.178 485.5 503.178 483.678 505 483.678"></polygon>
                <polygon id="Path" fill="#F2F2F2" points="786 493.322 784.178 493.322 784.178 491.5 783.822 491.5 783.822 493.322 782 493.322 782 493.678 783.822 493.678 783.822 495.5 784.178 495.5 784.178 493.678 786 493.678"></polygon>
                <polygon id="Path" fill="#F2F2F2" points="447 536.322 445.178 536.322 445.178 534.5 444.822 534.5 444.822 536.322 443 536.322 443 536.678 444.822 536.678 444.822 538.5 445.178 538.5 445.178 536.678 447 536.678"></polygon>
                <polygon id="Path" fill="#F2F2F2" points="575 538.322 573.178 538.322 573.178 536.5 572.822 536.5 572.822 538.322 571 538.322 571 538.678 572.822 538.678 572.822 540.5 573.178 540.5 573.178 538.678 575 538.678"></polygon>
                <polygon id="Path" fill="#F2F2F2" points="96 368.322 94.178 368.322 94.178 366.5 93.822 366.5 93.822 368.322 92 368.322 92 368.678 93.822 368.678 93.822 370.5 94.178 370.5 94.178 368.678 96 368.678"></polygon>
                <rect id="Rectangle" fill="#E6E6E6" x="676.99708" y="230.68917" width="2.87443" height="58.06342"></rect>
                <polygon id="Path" fill="#E6E6E6" points="611.748 385.046 585.303 445.984 590.477 454.607 588.752 457.481 600.825 463.805 600.825 460.356 605.424 459.206 624.97 423.563"></polygon>
                <path d="M591.05172,456.90654 C591.05172,456.90654 571.50562,487.37546 593.35126,491.97454 C615.1969,496.57362 597.37546,459.78096 597.37546,459.78096 L591.05172,456.90654 Z" id="Path" fill="#E6E6E6"></path>
                <path d="M619.2211,443.10929 L612.32248,465.52982 L609.44805,494.27408 L604.27405,504.62202 L610.0229,551.18773 L619.22106,560.38589 L623.24526,606.37672 L623.24526,627.07259 L634.16808,646.0438 L620.1023,666.00814 C618.750452,667.919385 618.557667,670.418708 619.60042,672.514661 C620.643172,674.610613 622.752914,675.964411 625.09274,676.03902 C628.19813,676.12057 632.29181,675.24314 637.61739,672.48853 C654.28907,663.86525 653.71418,655.81685 653.71418,655.81685 C653.71418,655.81685 664.06212,655.81685 664.637,647.76846 C665.21188,639.72007 658.31326,582.23153 658.31326,582.23153 L651.98953,557.51147 L651.98953,490.24988 L654.28907,490.24988 L655.43884,547.73842 L660.61284,569.00917 L661.18772,578.20734 L668.66123,670.18899 C668.66123,670.18899 702.00458,679.38715 703.72923,671.91364 C705.45388,664.44013 691.08176,659.84105 691.08176,659.84105 L699.70504,643.16938 L699.70504,610.9758 L696.83061,604.07718 L691.65661,557.51147 L700.27989,548.3133 L704.87897,542.56445 L704.87897,496.57362 L699.13012,478.75218 L697.40547,463.80518 L688.2073,440.80977 C688.2073,440.80977 646.24071,427.0125 619.2211,443.10929 Z" id="Path" fill="#FFFFFF"></path>
                <path d="M693.956191,313.18521 C693.956191,332.171462 681.695434,348.984846 663.617569,354.787307 C645.539704,360.589768 625.783711,354.052983 614.734445,338.613051 C603.685179,323.17312 603.872083,302.364615 615.19691,287.12565 L615.20842,287.11414 C626.448183,271.994456 646.114593,265.783242 663.999677,271.704467 C681.88476,277.625692 693.959404,294.345435 693.956191,313.18521 L693.956191,313.18521 Z" id="Path" fill="#ED4933"></path>
                <g id="Group" opacity="0.1" transform="translate(614.000000, 271.000000)" fill="#000000">
                    <path d="M73.7474,24.07057 L70.18314,44.48475 C43.39914,-25.04188 0.79451,17.66634 0.05864,18.41368 C9.00884739,6.37733845 23.5076477,-0.226436231 38.4629692,0.921644003 C53.4182908,2.06972424 66.7392347,10.8091467 73.7474,24.07057 Z" id="Path"></path>
                </g>
                <path d="M688.89717,292.771 L685.33291,313.18518 C658.54891,243.65855 615.94429,286.36677 615.20842,287.11411 C624.158625,275.077768 638.657424,268.473993 653.612745,269.622073 C668.568065,270.770153 681.889007,279.509577 688.89717,292.771 L688.89717,292.771 Z" id="Path" fill="#FFFFFF"></path>
                <path d="M682.90787,284.15262 L688.89717,304.94289 C688.89717,304.94289 676.46457,342.20637 618.81117,343.50514 L616.9216,348.82814 L610.59786,350.5528 L607.72344,362.62539 L615.77183,439.08513 C615.77183,439.08513 612.32252,446.55864 618.07137,445.98376 C618.07137,445.98376 656.0138,433.33628 688.78227,444.83399 C688.78227,444.83399 695.68089,447.70841 693.95627,441.38467 C693.95627,441.38467 716.95169,427.01254 715.22703,412.06552 C713.50237,397.1185 716.95169,327.55738 716.95169,327.55738 C716.95169,327.55738 720.401,307.43638 710.05306,302.83732 C710.053,302.83728 694.855,281.56475 682.90787,284.15262 Z" id="Path" fill="#FFFFFF"></path>
                <path d="M670.30443,429.41751 C670.30443,429.41751 634.28607,433.03464 644.25649,453.00899 C654.22691,472.98334 671.98149,436.15838 671.98149,436.15838 L670.30443,429.41751 Z" id="Path" fill="#E6E6E6"></path>
                <path d="M688.78223,340.20482 C688.78223,340.20482 682.45849,347.67833 684.75803,359.75092 C687.05757,371.82351 695.68085,398.84312 695.68085,398.84312 L665.21193,427.0125 L674.41009,439.66 L715.80184,418.38924 L725,412.64037 L725,412.64037 C722.712876,389.387906 717.021464,366.597696 708.10813,345 L706.60367,341.35457 C706.60367,341.35457 695.68085,336.75551 688.78223,340.20482 Z" id="Path" fill="#E6E6E6"></path>
                <circle id="Oval" fill="#E6E6E6" cx="685.9078" cy="309.16101" r="10.63538"></circle>
                <circle id="Oval" fill="#E6E6E6" cx="678.43429" cy="230.40173" r="7.76095"></circle>
                <polygon id="Path" fill="#F2F2F2" points="481 352.322 479.178 352.322 479.178 350.5 478.822 350.5 478.822 352.322 477 352.322 477 352.678 478.822 352.678 478.822 354.5 479.178 354.5 479.178 352.678 481 352.678"></polygon>
                <polygon id="Path" fill="#F2F2F2" points="645 296.322 643.178 296.322 643.178 294.5 642.822 294.5 642.822 296.322 641 296.322 641 296.678 642.822 296.678 642.822 298.5 643.178 298.5 643.178 296.678 645 296.678"></polygon>
                <polygon id="Path" fill="#F2F2F2" points="627 313.322 625.178 313.322 625.178 311.5 624.822 311.5 624.822 313.322 623 313.322 623 313.678 624.822 313.678 624.822 315.5 625.178 315.5 625.178 313.678 627 313.678"></polygon>
                <circle id="Oval" fill="#F2F2F2" cx="556" cy="267" r="4"></circle>
                <path d="M358.9578,295.1945 C358.9578,574.2385 323.86934,574.2385 280.59817,574.2385 C258.22685,574.2385 238.04462,574.2385 223.77248,535.6927 C219.66915,524.6147 216.04423,510.33049 213.00548,491.9429 C206.16248,450.6097 202.23848,388.49625 202.23848,295.19447 C202.23848,259.31653 206.48548,224.14439 213.00548,191.29314 C216.13986,175.47769 219.80056,160.2125 223.77248,145.65314 C228.62965,127.82779 233.95326,111.06719 239.32477,95.73023 C242.92577,85.41787 246.56263,75.7396 250.09177,66.80297 C266.39777,25.55353 280.5982,-3.00000001e-05 280.5982,-3.00000001e-05 C280.5982,-3.00000001e-05 358.9578,141.08322 358.9578,295.1945 Z" id="Path" fill="#F2F2F2"></path>
                <g id="Group" opacity="0.1" transform="translate(239.000000, 66.000000)" fill="#000000">
                    <path d="M11.09174,0.803 L11.09174,487.30275 L0.32474,487.30275 L0.32474,29.7303 C3.92574,19.41794 7.56263,9.73967 11.09174,0.803 Z" id="Path"></path>
                </g>
                <circle id="Oval" fill="#3F3D56" cx="278.2055" cy="192.60917" r="43.06789"></circle>
                <path d="M372.71558,547.91925 C363.13965,524.34753 350.84424,520.28076 342.80737,520.6344 L342.80737,516.81464 L217.19263,516.81464 L217.19263,520.6344 C209.15576,520.28076 196.86035,524.34753 187.28442,547.91925 C171.73218,586.20184 196.855,652 196.855,652 C196.855,652 183.42885,560.233 228.01333,559.629 C231.874453,564.66561 236.612559,568.964322 242,572.3186 L242,597 L314,597 L314,574.56592 C321.038197,570.996258 327.184972,565.891684 331.98669,559.62892 C376.57117,560.233 363.145,652 363.145,652 C363.145,652 388.26782,586.20184 372.71558,547.91925 Z" id="Path" fill="#ED4933"></path>
                <circle id="Oval" fill="#ED4933" cx="278.2055" cy="192.60917" r="33.49725"></circle>
                <path d="M846.01,200.96 L844.01,200.96 C844.309052,246.0444 880.914637,282.449076 926,282.5 L926,280.5 C882.017857,280.452321 846.305804,244.941175 846.01,200.96 Z" id="Path" fill="#ED4933"></path>
                <path d="M809.01,200.96 L807.01,200.96 C807.326447,266.471901 860.48737,319.431779 926,319.5 L926,317.5 C861.593519,317.42795 809.330264,265.365725 809.01,200.96 Z" id="Path" fill="#ED4933"></path>
                <path d="M771,200.96 L769,200.96 C769.25,287.32 839.58,357.5 926,357.5 L926,355.5 C840.68,355.5 771.25,286.22 771,200.96 Z" id="Path" fill="#ED4933"></path>
            </g>
            <text id="Coming-soon-…." font-family="OpenSans-Bold, Open Sans" font-size="36" font-weight="bold" fill="#ED4933">
                <tspan x="417" y="90">COMING SOON ….</tspan>
            </text>
        </g>
    </g>
</svg>